/* XPM */
static char * D:\Walocoin\pixmaps\walocoin32_xpm[] = {
"32 32 717 2",
"  	c None",
". 	c #FDEFA1",
"+ 	c #FCEB97",
"@ 	c #FDEC97",
"# 	c #FDE98E",
"$ 	c #FCE382",
"% 	c #FCE27E",
"& 	c #FDF2A9",
"* 	c #F5EB9F",
"= 	c #E6D780",
"- 	c #E7D270",
"; 	c #E5CC5F",
"> 	c #E9CD5B",
", 	c #EACB55",
"' 	c #E7C64F",
") 	c #EAC64F",
"! 	c #EAC24A",
"~ 	c #F5CD54",
"{ 	c #FBD45C",
"] 	c #FDF4A9",
"^ 	c #E9DC8B",
"/ 	c #E4CE66",
"( 	c #EFD552",
"_ 	c #FDE256",
": 	c #FDE053",
"< 	c #FEDF52",
"[ 	c #FDE374",
"} 	c #FDDB50",
"| 	c #FFD646",
"1 	c #FED649",
"2 	c #FFD241",
"3 	c #F3C43A",
"4 	c #E9B735",
"5 	c #ECBA39",
"6 	c #FBD35E",
"7 	c #FCEFA5",
"8 	c #F2E698",
"9 	c #E3CA61",
"0 	c #F9DD53",
"a 	c #FAE373",
"b 	c #F8DB65",
"c 	c #FED948",
"d 	c #FEDC5C",
"e 	c #F3D264",
"f 	c #F9D259",
"g 	c #FFCF3C",
"h 	c #FBD255",
"i 	c #F4C23C",
"j 	c #FEC736",
"k 	c #FEC635",
"l 	c #FAC234",
"m 	c #E6B139",
"n 	c #F2CF70",
"o 	c #F7DF94",
"p 	c #FDF0A3",
"q 	c #E9D67F",
"r 	c #F0D04E",
"s 	c #FEDE57",
"t 	c #FEDA4B",
"u 	c #FFD747",
"v 	c #FCD54B",
"w 	c #F6D970",
"x 	c #FFCF3E",
"y 	c #FDCC3E",
"z 	c #F3CA54",
"A 	c #F9C53D",
"B 	c #F3C242",
"C 	c #FCC235",
"D 	c #FCC132",
"E 	c #F6C645",
"F 	c #F3BF3F",
"G 	c #F8BB2F",
"H 	c #EDB134",
"I 	c #EACD89",
"J 	c #FAEAB4",
"K 	c #FDEE9B",
"L 	c #E7CE72",
"M 	c #F6D045",
"N 	c #F4DE82",
"O 	c #F7DA72",
"P 	c #FFCE3D",
"Q 	c #FFCC3B",
"R 	c #F9C53B",
"S 	c #FDCA49",
"T 	c #FDD162",
"U 	c #FDCF62",
"V 	c #FBC547",
"W 	c #FABE31",
"X 	c #F9BC30",
"Y 	c #F8BA2F",
"Z 	c #F1BD47",
"` 	c #ECBD52",
" .	c #F4B32C",
"..	c #F2B12B",
"+.	c #EBAA2B",
"@.	c #E7C98F",
"#.	c #FAE7AF",
"$.	c #FBE68F",
"%.	c #E9CF6D",
"&.	c #F6CB3E",
"*.	c #FFD03E",
"=.	c #FECD3C",
"-.	c #F5D167",
";.	c #F2CB5E",
">.	c #FEC636",
",.	c #FCCD59",
"'.	c #EACB74",
").	c #D7C278",
"!.	c #BDAC6B",
"~.	c #AF9B52",
"{.	c #BBA860",
"].	c #E0C569",
"^.	c #F8C946",
"/.	c #F5B936",
"(.	c #F1B02D",
"_.	c #EFAE2B",
":.	c #EEAB29",
"<.	c #EAA92F",
"[.	c #EFC781",
"}.	c #E4A127",
"|.	c #E7C77C",
"1.	c #F4DA8C",
"2.	c #F2D771",
"3.	c #F1BF39",
"4.	c #FDD459",
"5.	c #FECD46",
"6.	c #FDC434",
"7.	c #FCC641",
"8.	c #FADC78",
"9.	c #EAD586",
"0.	c #B7A45C",
"a.	c #A39049",
"b.	c #96833C",
"c.	c #907C37",
"d.	c #95813C",
"e.	c #9E8A44",
"f.	c #B6A054",
"g.	c #EDC035",
"h.	c #FCC82C",
"i.	c #F6BB2E",
"j.	c #EAA728",
"k.	c #E8A327",
"l.	c #ECC782",
"m.	c #E3AA58",
"n.	c #E49D25",
"o.	c #DC972A",
"p.	c #F1CB62",
"q.	c #FCDF74",
"r.	c #E6B43E",
"s.	c #FDC534",
"t.	c #F7C547",
"u.	c #F5CD5A",
"v.	c #F7BE35",
"w.	c #FAC349",
"x.	c #F9DE78",
"y.	c #C6AF4E",
"z.	c #B8A562",
"A.	c #B3A05E",
"B.	c #BAA762",
"C.	c #BFAB64",
"D.	c #C5B16A",
"E.	c #C3AF69",
"F.	c #C3AF6A",
"G.	c #CEBA74",
"H.	c #DCC679",
"I.	c #F8D05E",
"J.	c #F8C228",
"K.	c #F5B926",
"L.	c #E59F25",
"M.	c #E29924",
"N.	c #E19824",
"O.	c #E09623",
"P.	c #DF9422",
"Q.	c #D5962B",
"R.	c #F8CA56",
"S.	c #E9BF4A",
"T.	c #F8BD32",
"U.	c #FBBF31",
"V.	c #FABD31",
"W.	c #F7B930",
"X.	c #F7BC3E",
"Y.	c #FBDE75",
"Z.	c #F1D254",
"`.	c #776217",
" +	c #624E05",
".+	c #67540D",
"++	c #A28F49",
"@+	c #B4A159",
"#+	c #C4B068",
"$+	c #D0BC75",
"%+	c #CCB66B",
"&+	c #F0BB2F",
"*+	c #F5BB20",
"=+	c #F0B123",
"-+	c #DF9523",
";+	c #DD9222",
">+	c #E8B246",
",+	c #E7AD39",
"'+	c #D88E21",
")+	c #E5A82B",
"!+	c #EAC05E",
"~+	c #FBD45F",
"{+	c #E4AD32",
"]+	c #F9BF3D",
"^+	c #F9C542",
"/+	c #F5B62F",
"(+	c #F3B32C",
"_+	c #F7D26C",
":+	c #FCD84C",
"<+	c #D6B53E",
"[+	c #68540C",
"}+	c #6C5916",
"|+	c #AC9855",
"1+	c #DAC67D",
"2+	c #E0CC83",
"3+	c #DECA82",
"4+	c #E6D289",
"5+	c #E8D48A",
"6+	c #EFC250",
"7+	c #F2B61E",
"8+	c #F0B41E",
"9+	c #E4A121",
"0+	c #D98F20",
"a+	c #E2A330",
"b+	c #E3A637",
"c+	c #D88C20",
"d+	c #D28C20",
"e+	c #EAB548",
"f+	c #F3C64A",
"g+	c #EBAC2B",
"h+	c #F2BA3A",
"i+	c #ECB73A",
"j+	c #EEB436",
"k+	c #F1B952",
"l+	c #FCD857",
"m+	c #F9CF3C",
"n+	c #9B7E1F",
"o+	c #655108",
"p+	c #8D7A3C",
"q+	c #7A6727",
"r+	c #B7A45F",
"s+	c #DCC880",
"t+	c #E1CD85",
"u+	c #E2CD84",
"v+	c #D1BD76",
"w+	c #D8C47D",
"x+	c #E5D188",
"y+	c #D5C079",
"z+	c #E7C66B",
"A+	c #EFB323",
"B+	c #EDAF1D",
"C+	c #EBAC1D",
"D+	c #D98E20",
"E+	c #D98B1F",
"F+	c #D98C20",
"G+	c #DA8C20",
"H+	c #D4891F",
"I+	c #E0A136",
"J+	c #E6B134",
"K+	c #EEAC2A",
"L+	c #ECA929",
"M+	c #E7A82D",
"N+	c #E7A429",
"O+	c #F4CA63",
"P+	c #FCCD32",
"Q+	c #ECC64F",
"R+	c #D9C57C",
"S+	c #C0AD66",
"T+	c #C9B56D",
"U+	c #D3BF76",
"V+	c #DFCB82",
"W+	c #E3CF86",
"X+	c #E3CE85",
"Y+	c #E1CD84",
"Z+	c #DDC980",
"`+	c #E8D186",
" @	c #EDB83F",
".@	c #EAAB1B",
"+@	c #E9A91B",
"@@	c #DC961D",
"#@	c #DA8E20",
"$@	c #DA8F20",
"%@	c #DD9529",
"&@	c #DC9221",
"*@	c #D48C1F",
"=@	c #DAAA55",
"-@	c #F8D367",
";@	c #E1AA3B",
">@	c #E9A427",
",@	c #E8A227",
"'@	c #E69F25",
")@	c #E59D25",
"!@	c #FAD060",
"~@	c #F9C72C",
"{@	c #F3D880",
"]@	c #E9D58C",
"^@	c #E0CC84",
"/@	c #D7C37A",
"(@	c #E8D48B",
"_@	c #D7C37B",
":@	c #E9C060",
"<@	c #E7A71C",
"[@	c #E7A61B",
"}@	c #E09C1C",
"|@	c #DB9121",
"1@	c #DB9529",
"2@	c #D9952D",
"3@	c #DA9120",
"4@	c #D48B1E",
"5@	c #DAA24D",
"6@	c #F8D87B",
"7@	c #DAA241",
"8@	c #E9A939",
"9@	c #F0C05D",
"0@	c #E9AF52",
"a@	c #E4A346",
"b@	c #FACC49",
"c@	c #F7C73A",
"d@	c #E7D184",
"e@	c #E7D38A",
"f@	c #E0CD84",
"g@	c #F4DD8F",
"h@	c #E8B03A",
"i@	c #E6A31A",
"j@	c #E5A21A",
"k@	c #D9911F",
"l@	c #E49B20",
"m@	c #E59E21",
"n@	c #E7A021",
"o@	c #D8921F",
"p@	c #D69B43",
"q@	c #FAE29C",
"r@	c #D9A050",
"s@	c #E0992C",
"t@	c #D79533",
"u@	c #DE9A3F",
"v@	c #E3AC59",
"w@	c #F8C227",
"x@	c #F3C443",
"y@	c #DBC57A",
"z@	c #D9C57D",
"A@	c #E2CE85",
"B@	c #DECA81",
"C@	c #CEBA72",
"D@	c #CAB66E",
"E@	c #D8C47B",
"F@	c #E6BD5E",
"G@	c #E5A219",
"H@	c #E6A319",
"I@	c #DC9720",
"J@	c #EAA422",
"K@	c #ECA723",
"L@	c #EDAA22",
"M@	c #DF9C22",
"N@	c #DAA34A",
"O@	c #FAE8B2",
"P@	c #D69F59",
"Q@	c #DC9122",
"R@	c #DB9021",
"S@	c #DA8F21",
"T@	c #E1A957",
"U@	c #F6BD23",
"V@	c #EEBE3F",
"W@	c #D6C37A",
"X@	c #DCC87F",
"Y@	c #CEBA71",
"Z@	c #D1BD75",
"`@	c #CBB871",
" #	c #C7B36D",
".#	c #C9B56E",
"+#	c #D1BD74",
"@#	c #D9BC67",
"##	c #E8A925",
"$#	c #E9A81B",
"%#	c #DF9D22",
"&#	c #EEAF30",
"*#	c #E1A32D",
"=#	c #EEAE2B",
"-#	c #E7A727",
";#	c #E3B04F",
">#	c #F8E7B3",
",#	c #D4A05E",
"'#	c #DA8D20",
")#	c #E1A757",
"!#	c #DF9D44",
"~#	c #DD9D47",
"{#	c #F3BD38",
"]#	c #EEB834",
"^#	c #D3BC70",
"/#	c #D2BE75",
"(#	c #D4C077",
"_#	c #D6C27A",
":#	c #D8C47C",
"<#	c #D4C078",
"[#	c #D6C279",
"}#	c #D5C178",
"|#	c #D9C174",
"1#	c #EFB11F",
"2#	c #E6A725",
"3#	c #F2B32A",
"4#	c #F0B539",
"5#	c #EFB533",
"6#	c #ECB12B",
"7#	c #EABA4D",
"8#	c #F5E1A4",
"9#	c #D9AD67",
"0#	c #DD9C42",
"a#	c #E8C47A",
"b#	c #E8BC67",
"c#	c #DA8D1F",
"d#	c #F0BF4F",
"e#	c #EEB221",
"f#	c #D2B35C",
"g#	c #D0BC74",
"h#	c #D2BE76",
"i#	c #BBA863",
"j#	c #C0AD68",
"k#	c #C2AE68",
"l#	c #CFBB72",
"m#	c #D4BD71",
"n#	c #F3BA31",
"o#	c #ECB124",
"p#	c #F2B62A",
"q#	c #FBBF2E",
"r#	c #FCC12F",
"s#	c #FDC432",
"t#	c #F2BB32",
"u#	c #EBC158",
"v#	c #EFD58A",
"w#	c #E2B960",
"x#	c #DA9D3D",
"y#	c #DA9530",
"z#	c #DC9220",
"A#	c #E9B249",
"B#	c #EBAC1C",
"C#	c #E1AE3B",
"D#	c #C7B065",
"E#	c #CCB870",
"F#	c #CDB970",
"G#	c #CCB86F",
"H#	c #CEB971",
"I#	c #CBB76E",
"J#	c #C8B46B",
"K#	c #B29F5A",
"L#	c #938141",
"M#	c #BBA761",
"N#	c #D6BB67",
"O#	c #F9C028",
"P#	c #E8B129",
"Q#	c #FDC533",
"R#	c #FEC738",
"S#	c #FEC93A",
"T#	c #FECB3F",
"U#	c #F2BC38",
"V#	c #E1BB5D",
"W#	c #F1C95B",
"X#	c #D88E1E",
"Y#	c #DF9420",
"Z#	c #E09620",
"`#	c #E29820",
" $	c #E7A842",
".$	c #EAAD2C",
"+$	c #E8A71D",
"@$	c #D1A846",
"#$	c #C2AE64",
"$$	c #C3AF67",
"%$	c #C7B36A",
"&$	c #C8B46C",
"*$	c #CAB66D",
"=$	c #C9B56C",
"-$	c #C0AC63",
";$	c #BFAB62",
">$	c #CBB76F",
",$	c #DABB59",
"'$	c #FBC729",
")$	c #EAB736",
"!$	c #FCCB44",
"~$	c #F1BC40",
"{$	c #F0BB41",
"]$	c #FBD154",
"^$	c #EFB83F",
"/$	c #F4C955",
"($	c #D99723",
"_$	c #E49C21",
":$	c #EAAB35",
"<$	c #E5A831",
"[$	c #E9A321",
"}$	c #E9AF41",
"|$	c #E7A41A",
"1$	c #E3A524",
"2$	c #B49E50",
"3$	c #B4A058",
"4$	c #B9A55C",
"5$	c #BCA85F",
"6$	c #C1AD64",
"7$	c #C3AF66",
"8$	c #C5B168",
"9$	c #C6B269",
"0$	c #B59C46",
"a$	c #E2B73A",
"b$	c #FDD152",
"c$	c #FED55B",
"d$	c #FED762",
"e$	c #F9D469",
"f$	c #EFC65E",
"g$	c #E3AD4A",
"h$	c #EAC25E",
"i$	c #E4A627",
"j$	c #E8A422",
"k$	c #E6A325",
"l$	c #EBA824",
"m$	c #F0AD25",
"n$	c #F0B02C",
"o$	c #E4A834",
"p$	c #C09631",
"q$	c #7E6820",
"r$	c #7E6A27",
"s$	c #9D8942",
"t$	c #A7944B",
"u$	c #B29E55",
"v$	c #B5A159",
"w$	c #B5A158",
"x$	c #BDA961",
"y$	c #C4B067",
"z$	c #C6B26A",
"A$	c #9F8C45",
"B$	c #987F31",
"C$	c #EFCB60",
"D$	c #FCD66B",
"E$	c #FAD66E",
"F$	c #FEE080",
"G$	c #FEE288",
"H$	c #E1A847",
"I$	c #D6A758",
"J$	c #EBB545",
"K$	c #E09F22",
"L$	c #F2B126",
"M$	c #F4B326",
"N$	c #F5B529",
"O$	c #F7BA31",
"P$	c #F1B733",
"Q$	c #A07F2E",
"R$	c #6D5A10",
"S$	c #66520A",
"T$	c #76631E",
"U$	c #8E7B34",
"V$	c #A08C44",
"W$	c #A69249",
"X$	c #A6934A",
"Y$	c #AE9A51",
"Z$	c #A9954D",
"`$	c #8B7833",
" %	c #9B8337",
".%	c #E8C96E",
"+%	c #FEE084",
"@%	c #E6B760",
"#%	c #E4B361",
"$%	c #FCE39A",
"%%	c #EDCD86",
"&%	c #DB9C43",
"*%	c #DE9C2C",
"=%	c #F1B228",
"-%	c #FABC2C",
";%	c #E8AC39",
">%	c #E3A231",
",%	c #F5BB2F",
"'%	c #F6BD32",
")%	c #B18826",
"!%	c #775D0D",
"~%	c #715808",
"{%	c #715907",
"]%	c #776013",
"^%	c #A18B3E",
"/%	c #9E893E",
"(%	c #9A853C",
"_%	c #97833A",
":%	c #9F8B40",
"<%	c #AA954B",
"[%	c #9E8543",
"}%	c #ECD285",
"|%	c #FFE698",
"1%	c #FEE8A0",
"2%	c #F3D998",
"3%	c #E7C589",
"4%	c #F9E6AB",
"5%	c #DB9C4A",
"6%	c #DBA64F",
"7%	c #D99624",
"8%	c #FAC131",
"9%	c #EBB034",
"0%	c #E6AD38",
"a%	c #FECA3E",
"b%	c #FECD44",
"c%	c #FECF4A",
"d%	c #E9BD49",
"e%	c #DEAF39",
"f%	c #E7B627",
"g%	c #EEBF28",
"h%	c #ECC130",
"i%	c #EDC53C",
"j%	c #E9C53D",
"k%	c #D5B437",
"l%	c #D6B85B",
"m%	c #E0C782",
"n%	c #FBE6A1",
"o%	c #FBE5A2",
"p%	c #F1D291",
"q%	c #FEEEB5",
"r%	c #FFF0BC",
"s%	c #FDEFBD",
"t%	c #DCAE6D",
"u%	c #D19E4F",
"v%	c #D99F4B",
"w%	c #DA9C28",
"x%	c #FBCC46",
"y%	c #FED14E",
"z%	c #FFD355",
"A%	c #FDD55D",
"B%	c #F5CB59",
"C%	c #FEDA6D",
"D%	c #FEDD76",
"E%	c #F6D779",
"F%	c #ECCF77",
"G%	c #EACD79",
"H%	c #EACE7F",
"I%	c #E8D189",
"J%	c #F2DB9C",
"K%	c #FEECAE",
"L%	c #FDE9AA",
"M%	c #FFEFB9",
"N%	c #FFF0BE",
"O%	c #E4BF7D",
"P%	c #F1E1AF",
"Q%	c #FDF4C8",
"R%	c #E1BD80",
"S%	c #D7A452",
"T%	c #DDA54D",
"U%	c #E0A838",
"V%	c #F9D264",
"W%	c #FEDC70",
"X%	c #F5CC5F",
"Y%	c #F7D97D",
"Z%	c #FEE38A",
"`%	c #FCDF89",
" &	c #EFC870",
".&	c #FAE39C",
"+&	c #FFEBAA",
"@&	c #F9E19F",
"#&	c #FBE9B1",
"$&	c #FFF0BA",
"%&	c #F3D99E",
"&&	c #DDB475",
"*&	c #F6E7B7",
"=&	c #FFF7CB",
"-&	c #FBF3C8",
";&	c #FAF2C7",
">&	c #E0BB79",
",&	c #DBAB57",
"'&	c #E2B456",
")&	c #F0BC45",
"!&	c #F1CF74",
"~&	c #FDE697",
"{&	c #FEE89E",
"]&	c #FEE9A5",
"^&	c #F1CA7E",
"/&	c #EBC37D",
"(&	c #F6E4AC",
"_&	c #FFF1BD",
":&	c #EDC98C",
"<&	c #F4E5B6",
"[&	c #FFF5CA",
"}&	c #F7E7B8",
"|&	c #E8CC89",
"1&	c #F7EEC1",
"2&	c #FEFACF",
"3&	c #EFE2B1",
"4&	c #E2B660",
"5&	c #D8AF5B",
"6&	c #DBB65E",
"7&	c #F4C64F",
"8&	c #EFC25C",
"9&	c #F0D695",
"0&	c #FCECB6",
"a&	c #FAEBB9",
"b&	c #F2E1B1",
"c&	c #FFF4C8",
"d&	c #FEF6CA",
"e&	c #F1DFAF",
"f&	c #F3E8BD",
"g&	c #FEF9CF",
"h&	c #FDF9CE",
"i&	c #EEE2B1",
"j&	c #E2C075",
"k&	c #E0B656",
"l&	c #CDAD65",
"m&	c #DEB55C",
"n&	c #E5B24B",
"o&	c #E3AA48",
"p&	c #E3B979",
"q&	c #EACD9A",
"r&	c #EAD7AA",
"s&	c #F0E2B4",
"t&	c #F1E4B6",
"u&	c #EBDCAD",
"v&	c #EAD5A0",
"w&	c #E3C381",
"x&	c #E1B559",
"y&	c #DDB557",
"z&	c #D4B567",
"A&	c #D29F53",
"B&	c #D39A4B",
"C&	c #D19743",
"D&	c #D49C4D",
"E&	c #D5A051",
"F&	c #D4A24D",
"G&	c #D6A958",
"H&	c #D4AF5F",
"                          . + @ # $ %                           ",
"                    & * = - ; > , ' ) ! ~ {                     ",
"                ] ^ / ( _ : < [ } | 1 2 3 4 5 6                 ",
"            7 8 9 0 < a b c d e f g h i j k l m n o             ",
"          p q r s t u v w x y z A k B C D E F G H I J           ",
"        K L M | N O P Q R j S T U V W X Y Z `  ...+.@.#.        ",
"      $.%.&.*.=.-.;.>.,.'.).!.~.~.{.].^./.(._.:.<.[.}.|.1.      ",
"      2.3.4.5.k 6.7.8.9.0.a.b.c.d.e.f.g.h.i.j.k.l.m.n.o.p.      ",
"    q.r.s.t.u.v.w.x.y.z.A.B.C.D.E.F.G.H.I.J.K.L.M.N.O.P.Q.R.    ",
"    S.T.U.V.W.X.Y.Z.`. + + +.+++@+#+$+$+%+&+*+=+-+;+>+,+'+)+!+  ",
"  ~+{+]+^+/+(+_+:+<+[+ + +}+|+1+2+3+3+4+5+6+7+8+9+0+a+b+c+d+e+  ",
"  f+g+h+i+j+k+l+m+n+o+p+q+r+s+t+u+v+w+x+y+z+A+B+C+D+E+F+G+H+I+  ",
"  J+K+L+M+N+O+P+Q+R+S+T+U+V+W+X+Y+2+V+V+Z+`+ @.@+@@@#@$@%@&@*@=@",
"-@;@>@,@'@)@!@~@{@]@^@/@4+]@(@(@x+2+1+V+_@W+:@<@[@}@|@1@2@3@4@5@",
"6@7@8@9@0@a@b@c@d@W+2+x+(@4+x+x+4+e@Z+f@V+4+g@h@i@j@k@l@m@n@o@p@",
"q@r@s@t@u@v@w@x@y@z@V+W+W+A@Y+2+^@Z+B@C@D@E@Z+F@G@H@I@J@K@L@M@N@",
"O@P@Q@R@S@T@U@V@).W@1+Z+V+V+B@X@z@Y@Z@`@ #.#+#@###$#%#&#*#=#-#;#",
">#,#'#)#!#~#{#]#^#/#(#_#E@:#1+/@<#T+D@[#:#:#}#|#j+1#2#3#4#5#6#7#",
"8#9#0#a#b#c#d#e#f#D@+#Z@g#U+U+h#/#+##+i#j#k#l#m#n#o#p#q#r#s#t#u#",
"v#w##@x#y#z#A#B#C#D#E#F#G#l#Y@H#F#I#J#K#L#M#G#N#O#P#Q#R#S#T#U#V#",
"  W#X#Y#Z#`# $.$+$@$#$$$%$J#&$*$=$=$C@-$;$*$>$,$'$)$!$~${$]$^$  ",
"  /$($_$:$<$[$}$|$1$2$3$4$5$6$7$6$8$9$(#_#E@#+0$a$b$c$d$e$f$g$  ",
"  h$i$j$k$l$m$n$o$p$q$r$s$t$u$v$w$4$x$y$z$8$A$B$C$D$E$F$G$H$I$  ",
"    J$K$L$M$N$O$P$Q$R$ +S$T$U$V$W$X$W$Y$Z$`$ %.%+%@%#%$%%%&%    ",
"      *%=%-%;%>%,%'%)%!%~%{%]%^%/%(%_%:%<%[%}%|%1%2%3%4%5%      ",
"      6%7%8%9%0%a%b%c%d%e%f%g%h%i%j%k%l%m%n%o%p%q%r%s%t%u%      ",
"        v%w%x%y%z%A%B%C%D%E%F%G%H%I%J%K%L%M%N%O%P%Q%R%S%        ",
"          T%U%V%W%X%Y%Z%`% &.&+&@&#&$&%&&&*&=&-&;&>&,&          ",
"            '&)&!&~&{&]&^&/&(&_&:&<&[&}&|&1&2&3&4&5&            ",
"              6&7&8&9&0&a&b&c&d&e&f&g&2&h&i&j&k&l&              ",
"                  m&n&o&p&q&r&s&t&u&v&w&x&y&z&                  ",
"                        A&B&C&D&E&F&G&H&                        "};
