/* XPM */
static char * D:\Walocoin\pixmaps\walocoin16_xpm[] = {
"16 16 204 2",
"  	c None",
". 	c #F1E7A0",
"+ 	c #EBD684",
"@ 	c #EACE6B",
"# 	c #EACA5F",
"$ 	c #EBC75E",
"% 	c #F1CC5C",
"& 	c #F2E79E",
"* 	c #EFDC7F",
"= 	c #F3DA62",
"- 	c #FCDE57",
"; 	c #FBDB5F",
"> 	c #FED64E",
", 	c #FCD14B",
"' 	c #F6C236",
") 	c #F1BF42",
"! 	c #F0D37F",
"~ 	c #F0E08F",
"{ 	c #F4D358",
"] 	c #FADC69",
"^ 	c #FED241",
"/ 	c #FACD4B",
"( 	c #FBCA49",
"_ 	c #FAC43D",
": 	c #F8BF35",
"< 	c #F7C13E",
"[ 	c #F6BE43",
"} 	c #ECB54E",
"| 	c #EBD6A2",
"1 	c #F3DC82",
"2 	c #F4CA50",
"3 	c #FECC3E",
"4 	c #FACC50",
"5 	c #F8D16A",
"6 	c #C6B065",
"7 	c #A28F48",
"8 	c #AA964F",
"9 	c #E1BD52",
"0 	c #F6BB2F",
"a 	c #ECA929",
"b 	c #EBBC6C",
"c 	c #E2A644",
"d 	c #EFD078",
"e 	c #F0C34E",
"f 	c #F8BF33",
"g 	c #F6C03F",
"h 	c #F7D35F",
"i 	c #9C8840",
"j 	c #968447",
"k 	c #A99552",
"l 	c #B9A65F",
"m 	c #D6C279",
"n 	c #ECC250",
"o 	c #EFB123",
"p 	c #E09623",
"q 	c #E6A638",
"r 	c #E2A637",
"s 	c #EFC958",
"t 	c #F0B534",
"u 	c #F0B93D",
"v 	c #F6C756",
"w 	c #DEBB3B",
"x 	c #715E1E",
"y 	c #847133",
"z 	c #D1BE77",
"A 	c #DCC77F",
"B 	c #E2CE85",
"C 	c #E5C872",
"D 	c #F0B31F",
"E 	c #E19B20",
"F 	c #E09B2C",
"G 	c #D78C21",
"H 	c #E0AB46",
"I 	c #E7B74C",
"J 	c #EBA728",
"K 	c #E7A329",
"L 	c #F9CD52",
"M 	c #EAD07A",
"N 	c #D5C27A",
"O 	c #DCC87F",
"P 	c #E6D289",
"Q 	c #E7D38A",
"R 	c #D8C47C",
"S 	c #DFCA81",
"T 	c #EBB43E",
"U 	c #E3A01B",
"V 	c #DC9325",
"W 	c #D88F1F",
"X 	c #D49437",
"Y 	c #E3B560",
"Z 	c #E6AA46",
"` 	c #E09F3F",
" .	c #F8C637",
"..	c #DFCA80",
"+.	c #DDC980",
"@.	c #E9D58C",
"#.	c #E3CF86",
"$.	c #DFCB83",
"%.	c #DAC67E",
"&.	c #E4C26C",
"*.	c #E6A31A",
"=.	c #DD971F",
"-.	c #E9A422",
";.	c #D69325",
">.	c #E1BB7F",
",.	c #DD983C",
"'.	c #DD9A3F",
").	c #F1BB30",
"!.	c #D5C076",
"~.	c #D8C47B",
"{.	c #DBC77E",
"].	c #D1BD74",
"^.	c #CEBB73",
"/.	c #D0BC74",
"(.	c #D6BF72",
"_.	c #ECAE27",
":.	c #E2A323",
"<.	c #ECB135",
"[.	c #E5A92D",
"}.	c #E3BE77",
"|.	c #DFA551",
"1.	c #DF9E3C",
"2.	c #EDB641",
"3.	c #D2B35E",
"4.	c #D5C178",
"5.	c #CAB66D",
"6.	c #BAA660",
"7.	c #B6A35F",
"8.	c #D6BF73",
"9.	c #F2B929",
"0.	c #FCC231",
"a.	c #FDC637",
"b.	c #EAB843",
"c.	c #EBC65D",
"d.	c #DD9620",
"e.	c #E49F29",
"f.	c #E9A935",
"g.	c #E1A62B",
"h.	c #B7A359",
"i.	c #C6B269",
"j.	c #C0AC63",
"k.	c #CFBB73",
"l.	c #CEBA71",
"m.	c #C4AC5A",
"n.	c #F0C23D",
"o.	c #FCCF54",
"p.	c #F4C857",
"q.	c #E0AE4C",
"r.	c #E5A72D",
"s.	c #EDAB26",
"t.	c #F2B228",
"u.	c #D3A238",
"v.	c #735E19",
"w.	c #8C7936",
"x.	c #A6924B",
"y.	c #AE9A51",
"z.	c #B6A35B",
"A.	c #B19E57",
"B.	c #B99F4E",
"C.	c #F5CF6D",
"D.	c #F5D37C",
"E.	c #E7BD6A",
"F.	c #DDA64C",
"G.	c #EFB129",
"H.	c #E8AD37",
"I.	c #FBC539",
"J.	c #CBA437",
"K.	c #B58E22",
"L.	c #C5A12F",
"M.	c #CBAC40",
"N.	c #B89D41",
"O.	c #CAB472",
"P.	c #F7DE96",
"Q.	c #FDE9AC",
"R.	c #EFD49C",
"S.	c #D6A356",
"T.	c #CE9230",
"U.	c #F3C54D",
"V.	c #FAD25F",
"W.	c #FBD975",
"X.	c #FBDA7D",
"Y.	c #F0D78E",
"Z.	c #ECD594",
"`.	c #F9E5AA",
" +	c #F5E1A9",
".+	c #F7E7B6",
"++	c #F1E0B0",
"@+	c #D0A45B",
"#+	c #E7BB58",
"$+	c #F2CD6F",
"%+	c #FBE6A5",
"&+	c #EED399",
"*+	c #FCF0BF",
"=+	c #EED8A8",
"-+	c #FCF4C8",
";+	c #F2E5B5",
">+	c #EAD49A",
",+	c #DCB768",
"'+	c #DBA849",
")+	c #DDB071",
"!+	c #DFBD8A",
"~+	c #E0C28D",
"{+	c #DDBB79",
"]+	c #D6AE55",
"          . + @ # $ %           ",
"      & * = - ; > , ' ) !       ",
"    ~ { ] ^ / ( _ : < [ } |     ",
"  1 2 3 4 5 6 7 8 9 0 a b c d   ",
"  e f g h i j k l m n o p q r   ",
"s t u v w x y z A B C D E F G H ",
"I J K L M N O P Q R S T U V W X ",
"Y Z `  ...+.@.#.+.$.%.&.*.=.-.;.",
">.,.'.).!.~.O {.].^./.(._.:.<.[.",
"}.|.1.2.3.4.5./.4.6.7.8.9.0.a.b.",
"c.d.e.f.g.h.i.i.j.k.l.m.n.o.p.q.",
"  r.s.t.u.v.w.x.y.z.A.B.C.D.E.  ",
"  F.G.H.I.J.K.L.M.N.O.P.Q.R.S.  ",
"    T.U.V.W.X.Y.Z.`. +.+++@+    ",
"      #+$+%+&+*+=+-+;+>+,+      ",
"          '+)+!+~+{+]+          "};
